PathFileType	4	(X/Y/Z)	/Users/mathieubourgeois/Desktop/Analyse/Traitement/Sujet_06/Data/Transformed_Sujet_06_velo_80.trc
DataRate	CameraRate	NumFrames	NumMarkers	Units	OrigDataRate	OrigDataStartFrame	OrigNumFrames
120.000000	120.000000	6	36	mm	120.000000	709	1892
Frame#	Time	RFHD			RANE			STRN			LANI			LKNE			T10			RHUM			RWRB			C7			LFWT			LTOE			RTOE			LWRA			LBWT			RBWT			RFWT			LKNI			RKNI			RKNE			LANE			RANI			LHEE			RHEE			LHUM			LRAD			RRAD			RWRA			LWRB			LFHD			LBHD			RBHD			RSHO			LSHO			CLAV			LCAR			RCAR			
		X1	Y1	Z1	X2	Y2	Z2	X3	Y3	Z3	X4	Y4	Z4	X5	Y5	Z5	X6	Y6	Z6	X7	Y7	Z7	X8	Y8	Z8	X9	Y9	Z9	X10	Y10	Z10	X11	Y11	Z11	X12	Y12	Z12	X13	Y13	Z13	X14	Y14	Z14	X15	Y15	Z15	X16	Y16	Z16	X17	Y17	Z17	X18	Y18	Z18	X19	Y19	Z19	X20	Y20	Z20	X21	Y21	Z21	X22	Y22	Z22	X23	Y23	Z23	X24	Y24	Z24	X25	Y25	Z25	X26	Y26	Z26	X27	Y27	Z27	X28	Y28	Z28	X29	Y29	Z29	X30	Y30	Z30	X31	Y31	Z31	X32	Y32	Z32	X33	Y33	Z33	X34	Y34	Z34	X35	Y35	Z35	X36	Y36	Z36	

710	5.908333333333333	261.2632141113281	1365.183471679688	159.0357818603515	-71.45855712890628	600.615234375	194.5748291015625	-29.59505844116212	1197.661865234375	65.06510162353509	-48.88252258300781	255.4620056152344	-60.87734222412112	-29.44813919067381	655.7755737304688	-129.8877258300782	-197.9734954833984	1345.465087890625	72.61029815673817	177.0121917724609	1103.984252929688	246.6432342529297	384.5584106445312	1008.909423828125	179.0247039794922	38.90810012817381	1456.622192382812	92.73008728027335	-173.3401641845703	1107.99951171875	-58.1036262512208	83.99465942382814	147.7837982177734	-136.0515289306641	64.4118728637695	474.6392211914062	197.4030609130859	410.9154663085938	1032.054077148438	-119.980598449707	-331.6087341308594	1140.738403320312	-7.982931137085072	-333.6350708007812	1136.719970703125	101.4184265136718	-175.6806182861328	1102.443969726562	151.7637176513671	-8.849846839904782	606.6085205078125	-34.19820022583011	160.4817962646484	883.7691650390625	114.46728515625	133.9062042236328	920.4135131835938	213.5005645751953	-84.4378204345703	250.8533477783203	-136.4724731445313	-47.69314575195314	593.655029296875	117.3127136230468	-133.8815155029297	247.8849182128906	-91.73569488525393	-128.1823272705078	608.6386108398438	147.5163116455078	187.7518768310547	1129.849365234375	-175.0007476806641	224.0255432128907	1176.968505859375	-200.1468811035157	217.8074645996093	1130.716674804688	295.1647033691406	413.5337829589843	1015.067016601562	239.4362945556641	433.9125061035156	1038.05419921875	-177.9734344482422	267.3002624511719	1363.283081054688	15.43440532684321	198.1924896240234	1496.895874023438	10.01749706268304	195.6621398925781	1518.072875976562	138.9037933349609	55.81346130371091	1398.756591796875	226.6623535156249	54.46158599853516	1417.897216796875	-64.74748229980477	54.54496383666991	1321.772705078125	77.91727447509757	486.8182983398438	1044.756103515625	-96.96074676513673	485.5927429199219	1047.336303710938	179.4467468261719	
711	5.916666666666667	261.25390625	1364.918090820312	159.3677062988281	-63.18998336791994	598.7056274414062	194.7560882568359	-29.84636497497559	1197.578247070312	65.36827087402337	-59.07287216186523	256.5545654296875	-60.58623886108401	-30.12859153747557	655.7471313476562	-129.8938751220703	-198.0038146972656	1345.615966796875	72.52759552001942	176.771987915039	1103.799072265625	246.714614868164	384.4356384277344	1008.956237792969	179.0983123779297	38.93284988403319	1456.508422851562	93.1083450317382	-173.6883850097656	1108.210693359375	-58.4236946105958	71.21060943603517	145.9334564208984	-135.8359069824219	77.30091857910153	477.5321655273438	196.8518524169922	410.8497619628906	1032.076538085938	-119.8573303222656	-331.9264526367188	1140.981689453125	-8.348334312439075	-334.1588439941406	1137.034912109375	100.9966812133788	-176.584701538086	1102.837646484375	151.7709350585937	-10.32895755767822	606.494140625	-34.18696212768558	161.7512969970703	887.2120971679688	116.3954925537109	134.0281524658203	924.18896484375	212.3160858154297	-94.73482513427733	252.6455535888672	-136.2166137695313	-40.78898239135744	592.8563232421875	117.15771484375	-144.3501586914062	250.8160552978516	-91.5019226074219	-120.3825073242188	604.737548828125	147.9242401123046	187.6719207763672	1129.76904296875	-175.0244903564453	223.9532318115235	1176.923583984375	-200.1285247802735	217.5511016845703	1130.455688476562	295.3011779785156	413.3756103515624	1015.09619140625	239.5508422851562	433.8438720703125	1038.0673828125	-177.8888549804688	267.3289794921875	1363.1171875	15.76495170593257	198.2758483886719	1496.758178710938	10.42742729187005	195.7144317626953	1517.840942382812	139.3667449951171	55.62798690795896	1398.549438476562	227.0012207031249	54.51099395751954	1417.810302734375	-64.43138885498055	54.46005249023437	1321.6904296875	78.13998413085929	486.7501831054688	1044.815063476562	-96.83947753906251	485.5490417480469	1047.354614257812	179.5776062011719	
712	5.925	261.1379699707031	1364.626586914062	159.6284637451171	-54.93458175659182	596.1392822265625	195.2479400634765	-30.22286033630372	1197.546875	65.61220550537102	-69.19806671142577	258.5094909667969	-60.30298233032229	-30.01219177246092	656.3516235351562	-129.9870910644532	-198.1397552490234	1345.789794921875	72.38975524902332	176.5297546386718	1103.659301757812	246.779800415039	384.305419921875	1009.024475097656	179.2049407958984	38.87732696533202	1456.384765625	93.40077972412101	-174.1527252197266	1108.40869140625	-58.74373626708994	58.0669288635254	144.6796722412109	-135.2539367675781	91.26202392578122	479.8181457519531	196.5257110595703	410.7852478027344	1032.04638671875	-119.7991638183594	-332.1593627929688	1141.025634765625	-8.60079288482677	-334.7512512207031	1137.281494140625	100.5583038330077	-177.3775939941407	1103.162841796875	151.5380249023437	-10.81006526947021	607.0287475585938	-34.2804107666016	162.2600402832031	889.8302001953125	115.1406173706054	132.1631927490234	927.8271484375	212.675537109375	-104.87060546875	255.4060668945312	-135.9868316650391	-29.03183746337892	589.2307739257812	118.2051010131836	-154.5489959716797	254.7425842285156	-91.2216720581055	-111.8764572143555	599.8771362304688	149.3291778564453	187.5751037597657	1129.662231445312	-175.01416015625	223.8352661132813	1176.839599609375	-200.0887756347657	217.2893524169922	1130.273193359375	295.3986816406249	413.1937561035156	1015.120056152344	239.690185546875	433.7873840332031	1038.057739257812	-177.8017272949219	267.21435546875	1362.909301757812	16.0386180877685	198.244140625	1496.590942382812	10.79451465606683	195.7025909423828	1517.6240234375	139.7396850585937	55.36890029907224	1398.357543945312	227.2905883789062	54.50783157348634	1417.6884765625	-64.21070861816415	54.3556785583496	1320.841674804688	78.29143524169913	486.6807250976562	1044.880737304688	-96.71256256103517	485.4918518066406	1047.362548828125	179.7149047851562	
713	5.933333333333334	260.8858337402344	1364.258911132812	159.8321075439453	-46.22890472412112	592.2789306640625	195.703872680664	-30.6919345855713	1197.515258789062	65.79639434814446	-78.94734954833983	261.472412109375	-60.09297943115237	-29.12333297729491	657.4332275390625	-130.190673828125	-198.3624267578125	1345.945678710938	72.22811126708973	176.2740631103515	1103.5634765625	246.8130340576172	384.1834716796875	1009.1279296875	179.2788238525391	38.72205734252928	1456.26318359375	93.57291412353507	-174.7316741943359	1108.575439453125	-59.05594253540048	45.48691177368165	144.5742034912109	-134.9857482910156	103.9075241088867	481.0609130859375	196.0745239257812	410.71630859375	1032.04345703125	-119.7168426513672	-332.6747131347656	1141.150512695312	-8.88668155670177	-335.3403930664062	1137.453125	100.2358627319335	-178.2064819335938	1103.564208984375	151.3968811035155	-10.64985942840576	608.0488891601562	-34.46036529541019	162.1149749755859	892.2593383789062	110.8188095092773	131.7586669921875	929.7385864257812	211.5940704345703	-114.6565017700195	259.1114807128906	-135.7325592041016	-20.61010551452638	586.8967895507812	119.1664505004882	-164.3912200927734	259.6724548339844	-90.92776489257815	-103.9186630249024	594.4138793945312	149.3732147216797	187.4690551757813	1129.553100585938	-174.9621276855469	223.7069244384766	1176.728881835938	-200.0108337402344	217.0056915283203	1130.188842773438	295.4480285644531	413.0159301757812	1015.218383789062	239.7801818847656	433.7149047851562	1038.074829101562	-177.7220611572266	266.9898986816406	1362.687622070312	16.23475456237788	198.117919921875	1496.413330078125	11.0507850646972	195.5785980224609	1517.377685546875	140.0357666015624	55.07694625854489	1398.213500976562	227.468292236328	54.4354362487793	1417.5556640625	-64.04833984375009	53.95922470092773	1321.468627929688	78.49877166748038	486.5878295898438	1044.944091796875	-96.61563873291017	485.4300537109375	1047.404663085938	179.8275146484375	
714	5.941666666666666	260.5580139160156	1363.953735351562	159.9299926757812	-37.41472625732424	587.4946899414062	196.117691040039	-31.22391891479493	1197.468383789062	65.93618011474602	-87.7294235229492	265.4390258789062	-60.21900558471683	-27.58745384216307	658.9893798828125	-130.4725799560547	-198.6808471679688	1346.078125	72.04641723632801	176.0233917236328	1103.53076171875	246.8055267333984	384.0631408691406	1009.28125	179.2997283935547	38.46162033081053	1456.13720703125	93.68289184570304	-175.3352355957031	1108.682250976562	-59.31372833251962	33.06739425659181	145.3743896484375	-134.8238830566406	115.3475723266601	482.2684326171875	196.5044250488281	410.6486206054688	1032.022338867188	-119.7042922973633	-333.2600708007812	1141.19287109375	-9.093724250793567	-335.9623107910156	1137.532958984375	99.99053955078114	-179.0496368408203	1103.924560546875	151.2642211914062	-9.794908523559567	609.5308837890625	-34.77838897705082	162.240966796875	893.0455932617188	109.6411972045898	131.1583557128906	930.5794677734375	210.5275726318359	-124.1040115356445	263.6763916015625	-135.4308319091797	-13.20483398437501	582.8099975585938	119.0106735229492	-173.8149261474609	265.5707397460938	-90.64338684082034	-95.38793182373048	587.878662109375	150.1108856201172	187.3337554931641	1129.421875	-174.8482513427735	223.5627136230469	1176.632934570312	-199.9421539306641	216.7135925292968	1130.158203125	295.4411010742187	412.8739624023437	1015.32080078125	239.7666320800781	433.60986328125	1038.093505859375	-177.6918792724609	266.7032165527344	1362.473999023438	16.33450317382808	197.9075469970703	1496.244262695312	11.215271949768	195.3449401855468	1517.072021484375	140.2250213623046	54.71105957031247	1398.069702148438	227.5489501953124	54.26929473876954	1417.403198242188	-63.97719192504891	53.6335334777832	1321.338500976562	78.58291625976554	486.4893493652344	1044.990844726562	-96.56976318359376	485.3798522949219	1047.433837890625	179.8777160644531	
715	5.95	260.1768798828125	1363.6708984375	159.9710845947265	-28.51350975036624	581.81982421875	196.418212890625	-31.89276885986329	1197.400024414062	65.98972320556634	-95.90612030029295	270.3685913085938	-60.47314071655276	-25.45476150512694	660.9486083984375	-130.8821563720703	-199.0262603759766	1346.14208984375	71.85361480712879	175.8096466064453	1103.542724609375	246.7333221435547	383.947021484375	1009.450561523438	179.2298583984375	38.11912918090819	1456.011352539062	93.68601226806632	-176.0341186523438	1108.76171875	-59.56204223632822	20.8255195617676	146.8315887451172	-134.6602020263672	127.2300033569336	480.4788818359375	195.3942260742188	410.5634155273438	1032.015380859375	-119.7373580932617	-333.9147644042969	1141.16064453125	-9.193347930908313	-336.5579223632812	1137.52001953125	99.81982421874989	-179.8801574707032	1104.203002929688	151.268096923828	-8.285812377929684	611.4575805664062	-35.23667907714847	162.2677764892578	892.7911987304688	108.6272277832031	130.490966796875	930.3348999023438	209.3608245849609	-133.133804321289	269.0732727050781	-135.1668243408204	-3.202336072921768	576.9795532226562	119.2549057006836	-182.7956237792969	272.2997131347656	-90.31152343750004	-86.26633453369142	580.2649536132812	151.5785522460937	187.139389038086	1129.285766601562	-174.7251586914063	223.3756256103516	1176.554077148438	-199.8575592041016	216.4984588623047	1130.199584960938	295.3507995605468	412.7237548828124	1015.480285644531	239.7213287353516	433.5018920898438	1038.139282226562	-177.7387542724609	266.3475341796875	1362.255859375	16.35794067382808	197.6300048828125	1496.066650390625	11.32787799835198	195.0332946777343	1516.816162109375	140.2967529296874	54.31232452392575	1397.914306640625	227.5364379882812	54.00713348388673	1417.264038085938	-63.95774841308602	53.1918830871582	1321.200561523438	78.63515472412101	486.4049072265625	1045.041259765625	-96.63095855712892	485.3499450683594	1047.48388671875	179.8429870605469	
